# xmcd
#
# Track frame offsets:
#	150
#	10263
#	30343
#	48605
#	71219
#	82613
#	111215
#	127096
#	140881
#	155548
#	178170
#	192828
#	206542
#	223938
#	250306
#	264519
#
# Disc length: 3729 seconds
#
# Revision: 0
# Processed by: cddbd v1.5.1PL0 Copyright (c) Steve Scherf et al.
# Submitted via: dBpowerAMP V4.0
#
DISCID=ef0e8f10
DTITLE=Louis Armstrong - What a wonderful world
DYEAR=1999
DGENRE=Blues
TTITLE0=What a wonderful world
TTITLE1=Indiana
TTITLE2=Ole miss Blues
TTITLE3=The faithfull hussar
TTITLE4=After you`ve gone
TTITLE5=New Orleans function - Free as a bird -- Oh ! Didn't he ramble
TTITLE6=Mack the Knife
TTITLE7=C'est si bon
TTITLE8=When it's sleepy time down South
TTITLE9=La vie en rose
TTITLE10=The bucket's got a hole in it
TTITLE11=Give me a kiss to build a dream on
TTITLE12=Cabaret
TTITLE13=On the sunny side of the street
TTITLE14=Black and blue
TTITLE15=When the Saints go marchin' in
EXTD=
EXTT0=
EXTT1=
EXTT2=
EXTT3=
EXTT4=
EXTT5=
EXTT6=
EXTT7=
EXTT8=
EXTT9=
EXTT10=
EXTT11=
EXTT12=
EXTT13=
EXTT14=
EXTT15=
PLAYORDER=
